<svg width="79" height="66" viewBox="0 0 79 66" fill="none" xmlns="http://www.w3.org/2000/svg">
<path d="M78.4882 62.4618L57.4487 46.3483C57.5516 46.3435 57.656 46.3372 57.7589 46.3309C59.3033 46.2343 60.9427 45.9875 62.1959 45.0064C62.3905 44.8545 62.5709 44.6868 62.7371 44.5048C62.9555 44.2674 63.1469 44.0063 63.3067 43.7278C63.503 43.3876 63.658 43.0221 63.7641 42.6455C63.9318 42.0473 63.9935 41.4365 64.0014 40.8178C64.0014 35.1829 64.0679 29.5464 63.9982 23.9115C63.9761 23.2865 63.8986 22.6662 63.6992 22.0696C63.5742 21.6993 63.408 21.3433 63.196 21.0142C63.0425 20.7736 62.8637 20.5489 62.6659 20.3417C62.5203 20.1897 62.3636 20.0489 62.1975 19.9176C61.1658 19.109 59.8666 18.8004 58.5849 18.6612L78.4803 3.56355L75.7855 0.0126591L54.3742 16.2591V9.67633C54.3726 9.61145 54.3726 9.54657 54.3662 9.4817C54.3488 9.28706 54.3061 9.09559 54.2396 8.91362C54.0165 8.29965 53.5228 7.80436 52.9089 7.58124C52.7253 7.51478 52.5338 7.47206 52.3408 7.45465C52.2759 7.4499 52.211 7.4499 52.1461 7.44674H25.8515C25.7867 7.4499 25.7218 7.4499 25.6569 7.45465C25.4638 7.47206 25.2724 7.51478 25.0888 7.58124C24.4764 7.80436 23.9812 8.29807 23.758 8.91045C23.6916 9.09401 23.6488 9.28548 23.6314 9.47853C23.6251 9.54341 23.6251 9.60829 23.6219 9.67316L23.614 15.5676L2.68848 0L0.028486 3.57621L23.6061 21.117L23.5729 44.2564L0 62.4681L2.72487 65.9953L23.5634 49.896L23.5571 54.3631C23.5602 54.428 23.5602 54.4928 23.565 54.5561C23.5824 54.7508 23.6251 54.9422 23.6916 55.1258C23.9147 55.7414 24.4084 56.2351 25.0239 56.4598C25.2059 56.5262 25.3974 56.5689 25.592 56.5863C25.6569 56.5911 25.7218 56.5911 25.7867 56.5943H52.1461C52.211 56.5911 52.2759 56.5911 52.3408 56.5863C52.5338 56.5689 52.7253 56.5262 52.9089 56.4598C53.5228 56.2366 54.0165 55.7414 54.2396 55.1274C54.3061 54.9454 54.3488 54.7539 54.3662 54.5593C54.3726 54.496 54.3726 54.4311 54.3742 54.3662V49.6096L75.7776 66C76.6811 64.8211 77.5847 63.6407 78.4882 62.4618Z" fill="#221E20"/>
<path d="M28.0761 11.9043H33.4547V52.1366H28.0176C28.0381 38.7258 28.0571 25.3151 28.0761 11.9043Z" fill="white"/>
<path d="M37.9123 52.1366V11.9043H49.9163V52.1366H37.9123Z" fill="white"/>
<path d="M54.3739 41.9413V22.981C55.4088 22.9795 56.4453 22.9747 57.4786 23.0396C57.8378 23.0617 58.1954 23.0934 58.5514 23.1519C58.8189 23.1962 59.0926 23.2516 59.3426 23.3656L59.3427 23.3656C59.368 23.3783 59.3933 23.3909 59.417 23.4051C59.4217 23.4083 59.4455 23.4241 59.447 23.4273C59.4819 23.4922 59.4961 23.5713 59.5088 23.6425C59.5309 23.7691 59.5373 23.8957 59.542 24.0223C59.61 29.6492 59.61 35.2778 59.542 40.9048C59.5373 41.0314 59.5309 41.1564 59.5088 41.2814C59.4961 41.351 59.4819 41.4207 59.4534 41.484C59.4455 41.5014 59.4328 41.5077 59.4186 41.5172C59.2714 41.6042 59.1005 41.6517 58.9359 41.6928C58.6922 41.753 58.4438 41.7909 58.1938 41.8194C57.2792 41.927 56.3519 41.9302 55.431 41.9381C55.0797 41.9397 54.7268 41.9413 54.3739 41.9413Z" fill="white"/>
</svg>
