<svg width="247" height="56" viewBox="0 0 247 56" fill="none" xmlns="http://www.w3.org/2000/svg">
<rect x="114" y="9" width="21" height="36" fill="white"/>
<rect x="137" y="18" width="6" height="18" fill="white"/>
<path fill-rule="evenodd" clip-rule="evenodd" d="M119.695 10.1006H115.131C115.115 21.4795 115.099 32.8583 115.081 44.2372H119.695V10.1006ZM123.477 10.1006V44.2372H133.662V10.1006H123.477ZM74.7405 29.2883C74.7392 29.546 74.7378 29.8038 74.7378 30.063C74.7392 30.5758 74.7459 31.0874 74.766 31.6003C74.7794 31.9292 74.7996 32.2582 74.8264 32.5858C74.8533 32.8986 74.8868 33.2101 74.9312 33.5202C74.962 33.7404 74.9983 33.9593 75.0426 34.1768C75.0762 34.3487 75.1151 34.5192 75.1581 34.6883C75.3823 35.5624 75.7502 36.4539 76.4443 37.0621C76.5531 37.1574 76.6685 37.2447 76.7894 37.3239C77.0418 37.4877 77.317 37.6126 77.603 37.7079C78.2354 37.9174 78.9027 37.9751 79.5646 37.9805H82.6795V41.7627C81.6363 41.7627 80.593 41.7627 79.5498 41.7627C78.5455 41.7546 77.5426 41.6472 76.5799 41.3518C75.9287 41.1504 75.3017 40.8672 74.7298 40.4966C74.3672 40.2603 74.0276 39.9904 73.7161 39.691C73.4892 39.4735 73.2784 39.2385 73.0823 38.9928C71.8444 37.426 71.3302 35.4308 71.114 33.4786C71.0818 33.1913 71.0563 32.904 71.0348 32.6153C71.008 32.234 70.9892 31.8527 70.9771 31.4714C70.9583 30.9115 70.9529 30.3516 70.9556 29.7917C70.9583 29.0936 70.9677 28.3967 70.9744 27.6986V27.5831C70.969 26.7252 70.9556 25.8659 70.9556 25.0066C70.9569 24.7273 70.9583 24.4494 70.9623 24.1701C70.9731 23.6962 70.9878 23.2209 71.016 22.7469C71.0335 22.4596 71.0563 22.1723 71.0832 21.885C71.2577 20.0872 71.6591 18.2531 72.6379 16.7104C72.7749 16.4929 72.9239 16.2835 73.0823 16.0821C73.2784 15.835 73.4892 15.6014 73.7161 15.3839C74.0665 15.0456 74.4545 14.7448 74.8694 14.4897C75.4024 14.1608 75.9811 13.907 76.5799 13.7217C77.5426 13.4264 78.5455 13.3176 79.5498 13.3109H82.6795V17.0931C81.5906 17.0931 80.5031 17.085 79.4142 17.0931C78.7724 17.1092 78.1253 17.179 77.5171 17.3952C77.2391 17.4945 76.972 17.6248 76.7289 17.7913C76.6095 17.8718 76.4967 17.9618 76.3906 18.0598C75.73 18.6667 75.3769 19.5354 75.1581 20.3879C75.1151 20.5571 75.0762 20.7276 75.0426 20.8995C74.9983 21.117 74.962 21.3358 74.9312 21.5547C74.8868 21.8648 74.8533 22.1777 74.8264 22.4892C74.7996 22.8181 74.7794 23.1457 74.766 23.4746C74.7459 23.9875 74.7392 24.5004 74.7378 25.0133C74.7378 25.1771 74.7378 25.3423 74.7392 25.5061H79.8573V29.2883H74.7405ZM185.707 29.2305C185.704 29.487 185.703 29.7448 185.703 30.0012C185.705 30.5141 185.711 31.027 185.732 31.5385C185.746 31.8675 185.766 32.1964 185.793 32.524C185.819 32.8368 185.853 33.1483 185.897 33.4585C185.93 33.6773 185.966 33.8962 186.009 34.115C186.044 34.2855 186.083 34.4561 186.126 34.6252C186.351 35.5006 186.719 36.3935 187.413 37.0004C187.523 37.0957 187.639 37.1843 187.76 37.2622C188.013 37.426 188.289 37.5522 188.575 37.6475C189.206 37.857 189.874 37.9147 190.536 37.9201H193.65V41.7023C192.606 41.7023 191.565 41.7023 190.521 41.7023C189.517 41.6942 188.514 41.5868 187.551 41.2914C186.899 41.09 186.273 40.8067 185.701 40.4348C185.339 40.1999 184.998 39.93 184.686 39.6306C184.459 39.4131 184.249 39.1781 184.053 38.9324C182.813 37.3656 182.299 35.3704 182.08 33.4182C182.048 33.1309 182.022 32.8436 182.002 32.5549C181.974 32.1736 181.955 31.7923 181.943 31.411C181.924 30.8511 181.919 30.2912 181.92 29.7327C181.923 29.0345 181.932 28.3363 181.939 27.6382V27.5213C181.934 26.6621 181.92 25.8028 181.92 24.9448C181.922 24.6656 181.924 24.3863 181.928 24.1084C181.939 23.6331 181.954 23.1591 181.982 22.6865C182 22.3979 182.022 22.1105 182.051 21.8232C182.227 20.0268 182.628 18.1927 183.608 16.65C183.745 16.4339 183.894 16.2244 184.053 16.023C184.249 15.776 184.459 15.5424 184.686 15.3235C185.038 14.9865 185.426 14.6858 185.841 14.4307C186.374 14.1017 186.953 13.8479 187.551 13.664C188.514 13.3673 189.517 13.2599 190.521 13.2518H193.65V17.034C192.561 17.034 191.473 17.026 190.386 17.0354C189.744 17.0501 189.097 17.12 188.489 17.3361C188.209 17.4355 187.942 17.5657 187.699 17.7322C187.58 17.8141 187.467 17.904 187.361 18.0007C186.7 18.6076 186.346 19.4763 186.126 20.3288C186.083 20.498 186.044 20.6685 186.009 20.8404C185.966 21.0579 185.93 21.2768 185.897 21.4956C185.853 21.8057 185.819 22.1186 185.793 22.4301C185.766 22.7577 185.746 23.0866 185.732 23.4156C185.711 23.9271 185.705 24.4387 185.703 24.9515C185.703 25.1167 185.704 25.2832 185.704 25.4483H190.826V29.2305H185.707ZM238.999 29.2305C238.996 29.487 238.995 29.7448 238.995 30.0012C238.997 30.5141 239.003 31.027 239.024 31.5385C239.037 31.8675 239.058 32.1964 239.084 32.524C239.111 32.8368 239.145 33.1483 239.189 33.4585C239.22 33.6787 239.258 33.8975 239.301 34.115C239.336 34.2869 239.373 34.4574 239.417 34.6266C239.642 35.5006 240.01 36.3935 240.704 37.0017C240.812 37.097 240.929 37.1843 241.05 37.2622C241.303 37.426 241.578 37.5522 241.864 37.6475C242.496 37.857 243.163 37.9147 243.825 37.9201H246.928V41.7023C245.889 41.7023 244.85 41.7023 243.811 41.7023C242.806 41.6942 241.803 41.5868 240.841 41.2914C240.189 41.09 239.562 40.8067 238.99 40.4348C238.628 40.1999 238.288 39.93 237.977 39.6306C237.75 39.4117 237.539 39.1781 237.343 38.9324C236.104 37.3656 235.59 35.3704 235.372 33.4182C235.34 33.1309 235.314 32.8436 235.293 32.5549C235.266 32.1736 235.247 31.7923 235.235 31.411C235.216 30.8511 235.211 30.2912 235.212 29.7313C235.215 29.0345 235.224 28.3363 235.231 27.6382V27.5213C235.226 26.6621 235.214 25.8041 235.212 24.9448C235.214 24.6656 235.216 24.3876 235.22 24.1084C235.231 23.6344 235.246 23.1605 235.274 22.6865C235.292 22.3979 235.314 22.1105 235.343 21.8245C235.517 20.0268 235.919 18.1941 236.899 16.65C237.036 16.4339 237.183 16.2244 237.343 16.023C237.538 15.776 237.75 15.5424 237.977 15.3248C238.327 14.9865 238.715 14.6858 239.13 14.4307C239.664 14.1017 240.242 13.8479 240.841 13.664C241.803 13.3673 242.806 13.2599 243.811 13.2518H246.928V17.034C245.843 17.034 244.76 17.026 243.675 17.0354C243.033 17.0501 242.386 17.12 241.778 17.3361C241.5 17.4355 241.233 17.5657 240.988 17.7322C240.87 17.8141 240.757 17.904 240.651 18.0007C239.991 18.6076 239.636 19.4763 239.417 20.3288C239.373 20.498 239.336 20.6685 239.301 20.8404C239.258 21.0579 239.22 21.2768 239.189 21.4956C239.145 21.8057 239.111 22.1172 239.084 22.4301C239.058 22.7577 239.037 23.0866 239.024 23.4142C239.003 23.9271 238.997 24.4387 238.995 24.9515C238.995 25.1167 238.996 25.2832 238.996 25.4483H244.109V29.2305H238.999ZM176.14 41.7023C175.763 41.6982 175.387 41.6848 175.011 41.6486C174.439 41.5922 173.874 41.4874 173.32 41.333C172.37 41.0672 171.464 40.6201 170.693 40.0038C170.103 39.5312 169.592 38.9593 169.188 38.3188C168.838 37.7643 168.567 37.1628 168.369 36.5371C168.168 35.8994 168.044 35.2375 167.984 34.5715C167.952 34.2292 167.941 33.8881 167.937 33.5444V13.809H171.719C171.719 20.4336 171.664 27.0568 171.72 33.68C171.734 34.1889 171.785 34.6951 171.915 35.1891C172.002 35.5181 172.125 35.8403 172.291 36.1384C172.406 36.3465 172.545 36.5425 172.706 36.7211C172.804 36.8285 172.909 36.9292 173.021 37.0218C173.76 37.6301 174.741 37.8529 175.676 37.9066C175.837 37.916 175.998 37.9187 176.158 37.9201H181.021V41.7023C179.394 41.7023 177.768 41.7023 176.14 41.7023ZM64.0504 41.3223V25.5007H67.8326V41.3223C66.5719 41.3223 65.3112 41.3223 64.0504 41.3223ZM205.316 41.6029H205.315H205.313C204.94 41.5989 204.567 41.5855 204.196 41.5492C203.623 41.4928 203.056 41.3881 202.502 41.2337C201.552 40.9692 200.646 40.5221 199.874 39.9072C199.282 39.4346 198.772 38.8626 198.366 38.2235C198.015 37.669 197.742 37.0675 197.545 36.4418C197.342 35.8027 197.218 35.1408 197.157 34.4735C197.126 34.1325 197.114 33.7901 197.111 33.4464V13.809H200.893C200.893 20.4 200.837 26.991 200.895 33.582C200.908 34.0909 200.959 34.597 201.089 35.0898C201.176 35.4187 201.299 35.741 201.465 36.0377C201.582 36.2471 201.72 36.4432 201.881 36.6204C201.979 36.7278 202.085 36.8298 202.198 36.9225C202.939 37.5307 203.924 37.7536 204.859 37.8073C205.012 37.8153 205.164 37.818 205.316 37.8207C205.447 37.8194 205.46 37.8194 205.615 37.814C206.617 37.767 207.673 37.5602 208.46 36.8929C208.582 36.7896 208.697 36.6768 208.801 36.5546C208.958 36.3707 209.093 36.1679 209.205 35.9544C209.367 35.647 209.483 35.3167 209.565 34.9784C209.687 34.4708 209.729 33.9512 209.733 33.4303V13.809H213.515V33.4464C213.513 33.7901 213.501 34.1325 213.47 34.4749C213.408 35.1408 213.284 35.8041 213.082 36.4418C212.903 37.0057 212.664 37.5495 212.362 38.057C211.872 38.8787 211.213 39.5943 210.431 40.1462C209.792 40.5986 209.078 40.9383 208.33 41.1719C207.784 41.3424 207.221 41.4579 206.653 41.525C206.355 41.5599 206.057 41.5801 205.758 41.5935C205.536 41.6002 205.536 41.6002 205.316 41.6029ZM26.5305 41.2028L26.5278 41.4848C26.1545 41.4807 25.7813 41.4673 25.4094 41.4311C24.8361 41.3747 24.2708 41.2699 23.7177 41.1155C22.7684 40.851 21.8621 40.4039 21.0901 39.789C20.498 39.3164 19.9878 38.7444 19.5823 38.1054C19.2292 37.5508 18.9567 36.9493 18.758 36.3237C18.5566 35.6846 18.4317 35.0213 18.3699 34.354C18.3391 34.0117 18.327 33.6693 18.3243 33.3269V27.4542H22.1065C22.1065 29.4574 22.0904 31.4593 22.1078 33.4612C22.1213 33.97 22.1723 34.4762 22.3025 34.969C22.3911 35.2992 22.5133 35.6201 22.6798 35.9182C22.7966 36.1276 22.9362 36.3237 23.0974 36.5022C23.1954 36.6097 23.3014 36.7104 23.4142 36.8043C24.154 37.4112 25.1382 37.6354 26.0726 37.6891C26.2257 37.6985 26.3788 37.7012 26.5318 37.7026C26.6674 37.7012 26.6782 37.7012 26.8339 37.6958C27.8355 37.6489 28.8895 37.4421 29.6749 36.7761C29.7971 36.6728 29.9112 36.5586 30.016 36.4365C30.1731 36.2525 30.3073 36.0511 30.4188 35.8363C30.5812 35.5288 30.6967 35.1972 30.7786 34.8602C30.9021 34.3513 30.9424 33.8317 30.9478 33.3095V27.4542H34.73V33.3269C34.7259 33.6693 34.7152 34.0117 34.683 34.354C34.6225 35.0213 34.4977 35.6832 34.2963 36.3223C34.1177 36.8849 33.8787 37.43 33.5766 37.9375C33.0866 38.7592 32.4287 39.4748 31.6473 40.028C31.0082 40.4805 30.2952 40.8202 29.5487 41.0538C29.0023 41.2243 28.4397 41.3398 27.8718 41.4069C27.5751 41.4418 27.277 41.4619 26.9776 41.4767C26.7547 41.4821 26.756 41.4821 26.5332 41.4848L26.5305 41.2028ZM137.444 19.4991V35.5866C137.744 35.5866 138.043 35.5852 138.341 35.5839C139.123 35.5772 139.909 35.5745 140.685 35.4832C140.898 35.459 141.108 35.4268 141.315 35.3758C141.455 35.3409 141.6 35.3006 141.725 35.2267C141.737 35.2187 141.747 35.2133 141.754 35.1985C141.778 35.1448 141.79 35.0858 141.801 35.0267C141.82 34.9206 141.825 34.8145 141.829 34.7071C141.887 29.9327 141.887 25.157 141.829 20.3826C141.825 20.2751 141.82 20.1677 141.801 20.0603C141.79 19.9999 141.778 19.9328 141.749 19.8777C141.747 19.875 141.727 19.8616 141.723 19.8589C141.703 19.8468 141.682 19.8361 141.66 19.8254C141.448 19.7287 141.216 19.6817 140.989 19.6441C140.687 19.5944 140.383 19.5676 140.079 19.5488C139.202 19.4937 138.322 19.4978 137.444 19.4991ZM15.5947 31.6473C15.5947 31.615 15.5961 31.615 15.592 31.5815C15.5934 31.6043 15.5947 31.6258 15.5947 31.6473ZM13.6197 26.846C14.099 27.2716 14.4991 27.7845 14.8039 28.3524C15.1234 28.9459 15.3396 29.5904 15.4685 30.2509C15.5759 30.7934 15.6336 31.3532 15.5961 31.9064C15.5907 35.0173 15.5853 38.1268 15.5786 41.2377L11.7964 41.2297C11.8031 38.0503 11.8085 34.8723 11.8139 31.6929C11.8165 31.6016 11.8152 31.603 11.8232 31.5117C11.8192 31.4163 11.8098 31.3197 11.7977 31.223C11.7642 30.9827 11.7132 30.745 11.6339 30.5154C11.5735 30.3436 11.4983 30.1798 11.403 30.024C11.3439 29.9247 11.2714 29.8334 11.1922 29.7501C11.1345 29.6911 11.07 29.636 11.0029 29.5877C10.6605 29.3487 10.2295 29.2936 9.82272 29.2883L7.65705 29.2856C7.56978 29.2869 7.5201 29.2883 7.3657 29.2883L3.81443 29.2829L3.7822 41.2109L0 41.2001L0.073845 13.8036L3.85605 13.8144L3.82517 25.494C5.1772 25.4913 6.52924 25.4859 7.88127 25.4913C8.82112 25.4242 9.79453 25.2053 10.5303 24.585C10.6538 24.4816 10.7679 24.3675 10.8727 24.2467C11.0298 24.0627 11.1654 23.86 11.2781 23.6465C11.4406 23.3404 11.5574 23.0101 11.6407 22.6731C11.7642 22.1669 11.8071 21.6487 11.8139 21.1277L11.8353 13.8318L15.6175 13.8426L15.5961 21.1559C15.592 21.4996 15.5786 21.8407 15.5464 22.1817C15.4833 22.8476 15.3571 23.5096 15.153 24.146C14.9731 24.7085 14.7327 25.251 14.4293 25.7571C14.1957 26.1465 13.9245 26.5117 13.6197 26.846ZM227.324 17.0488V40.8322C226.064 40.8322 224.803 40.8322 223.542 40.8322V17.0595C223.074 17.0649 222.605 17.0716 222.135 17.0797C222.013 17.0837 221.889 17.0904 221.767 17.0998C221.135 17.1602 220.465 17.3254 220.015 17.8034C219.909 17.9161 219.818 18.0437 219.742 18.1779C219.63 18.378 219.549 18.5955 219.49 18.817C219.412 19.1111 219.377 19.4118 219.363 19.7166C219.358 19.8213 219.358 19.8213 219.358 19.9261L215.576 19.8911C215.578 19.7287 215.578 19.7287 215.583 19.5662C215.622 18.7969 215.743 18.0383 216.001 17.3106C216.176 16.8125 216.411 16.3359 216.708 15.8995C216.924 15.5813 217.174 15.2859 217.451 15.0187C218.236 14.2601 219.235 13.7634 220.293 13.5136C220.908 13.3686 221.538 13.3082 222.169 13.2961H222.289H234.005V17.0783C231.779 17.0783 229.552 17.0555 227.324 17.0488ZM54.7876 29.2574V41.3223C53.5269 41.3223 52.2661 41.3223 51.0054 41.3223C51.0054 36.6607 51.0215 32.0004 51.004 27.3388C50.9973 26.5493 50.9866 25.7585 50.9866 24.9677C50.9879 24.4051 50.996 23.8425 51.0188 23.28C51.0309 23.0088 51.0457 22.7375 51.0645 22.4663L51.0134 22.4623C51.0255 22.328 51.0336 22.1938 51.0376 22.0595C51.0403 21.9467 51.0416 21.8353 51.039 21.7238C51.0349 21.5453 51.0269 21.368 51.0094 21.1895C50.9047 20.0536 50.5314 18.8613 49.648 18.0853C49.4452 17.9081 49.221 17.7564 48.9834 17.6302C48.5954 17.4261 48.1738 17.2891 47.7455 17.2005C47.0983 17.0676 46.4283 17.0367 45.7705 17.0676C44.8413 17.1106 43.8559 17.3012 43.108 17.8906C42.9966 17.9779 42.8918 18.0746 42.7938 18.1766C42.3883 18.6009 42.1171 19.1339 41.9251 19.6844C41.6177 20.5652 41.4915 21.505 41.4243 22.4314C41.3935 22.845 41.376 23.2585 41.3666 23.672C41.3559 24.1876 41.3559 24.7045 41.3612 25.2214C41.3626 25.306 41.3626 25.3906 41.3639 25.4752H46.5062V29.2574H41.3921V41.1988C40.1314 41.1988 38.8706 41.1988 37.6099 41.1988C37.6099 36.662 37.622 32.1266 37.6099 27.5898C37.6032 26.6298 37.5804 25.6699 37.575 24.7085C37.575 24.2399 37.579 23.77 37.5938 23.3014C37.6059 22.9188 37.6233 22.5361 37.6515 22.1548C37.7992 20.1583 38.2047 18.092 39.3647 16.4178C39.542 16.1613 39.7366 15.9156 39.9474 15.6833C40.2361 15.3665 40.5557 15.0751 40.8994 14.8173C41.6324 14.2695 42.4716 13.8788 43.351 13.6331C44.0814 13.4304 44.836 13.3243 45.5919 13.2894C47.5092 13.1981 49.5057 13.5056 51.1625 14.5219C51.4243 14.6817 51.6754 14.859 51.9143 15.0509C52.254 15.3235 52.5669 15.6283 52.8502 15.9599C52.9092 16.0284 52.967 16.0982 53.0234 16.1694L53.0261 16.1667C53.2154 15.9169 53.4208 15.6793 53.641 15.4578C53.9834 15.1127 54.362 14.8052 54.7701 14.5421C55.3421 14.1715 55.9678 13.8882 56.6203 13.6868C57.5803 13.3928 58.5819 13.284 59.5835 13.276L59.5983 15.1516L59.6157 13.2746C59.9903 13.2787 60.3636 13.2921 60.7355 13.3297C61.3088 13.3847 61.874 13.4895 62.4272 13.6452C63.3764 13.9097 64.2827 14.3581 65.0534 14.9744C65.6441 15.447 66.1543 16.019 66.5585 16.6594C66.9089 17.2126 67.1815 17.8154 67.3775 18.4398C67.6836 19.4065 67.8018 20.4148 67.8098 21.4258C66.5491 21.4365 65.2883 21.4473 64.0276 21.458C64.0263 21.3076 64.0276 21.3076 64.0236 21.1573C64.0169 21.0217 64.0088 20.886 63.9981 20.7504C63.9497 20.2832 63.8652 19.82 63.7027 19.3769C63.5966 19.0923 63.461 18.8184 63.2878 18.5687C63.171 18.3995 63.0367 18.2424 62.8891 18.1014C62.1399 17.3858 61.0765 17.128 60.0709 17.0703C59.9178 17.0622 59.7661 17.0595 59.613 17.0582C59.468 17.0595 59.3244 17.0622 59.1807 17.0676C59.0518 17.0756 58.9229 17.085 58.794 17.0971C58.2328 17.1575 57.6729 17.2757 57.1627 17.5254C56.9815 17.6154 56.8083 17.7201 56.6471 17.8423C55.8214 18.4666 55.4065 19.4736 55.1662 20.451C55.1246 20.6215 55.087 20.7947 55.0548 20.9679C55.0132 21.1881 54.9782 21.4097 54.9474 21.6312C54.9111 21.9038 54.8816 22.1777 54.8587 22.4516C54.8238 22.8637 54.8024 23.2773 54.7889 23.6895C54.7715 24.2037 54.7661 24.7193 54.7688 25.2335C54.7688 25.3141 54.7688 25.3946 54.7701 25.4752H59.8977V29.2574H54.7876ZM26.5291 17.2045C26.3935 17.2059 26.3828 17.2059 26.227 17.2099C26.0753 17.218 26.0753 17.218 25.9236 17.2274C25.5074 17.2636 25.0952 17.3267 24.6951 17.4462C24.0627 17.6355 23.472 17.9672 23.0396 18.4733C22.8825 18.6573 22.7469 18.86 22.6355 19.0748C22.473 19.3823 22.3562 19.7126 22.2743 20.0509C22.1521 20.5571 22.1105 21.0767 22.1065 21.5976V27.4542C20.8458 27.4542 19.585 27.4542 18.3243 27.4542V21.5802C18.3256 21.3748 18.3256 21.3761 18.331 21.1707C18.3431 20.8968 18.3605 20.6229 18.3914 20.3503C18.4653 19.6871 18.6036 19.0292 18.8211 18.3981C19.0117 17.8396 19.2655 17.3025 19.581 16.8044C19.9878 16.1653 20.498 15.5934 21.0901 15.1208C21.8608 14.5045 22.7671 14.0574 23.7163 13.7916C24.2708 13.6372 24.8361 13.5324 25.408 13.476C25.7813 13.4398 26.1545 13.4264 26.5278 13.4223L26.5305 13.7043L26.5332 13.4223C26.9078 13.4264 27.2797 13.4398 27.6529 13.476C28.2249 13.5324 28.7901 13.6372 29.3433 13.7916C30.2925 14.0574 31.1975 14.5058 31.9682 15.1221C32.5589 15.5947 33.0691 16.1667 33.4746 16.8058C33.825 17.3603 34.0976 17.9618 34.2949 18.5861C34.4977 19.2252 34.6225 19.8871 34.683 20.5531C34.7152 20.8954 34.7259 21.2378 34.73 21.5802V27.4542C33.4692 27.4542 32.2085 27.4542 30.9478 27.4542C30.9478 25.451 30.9639 23.4491 30.9464 21.4459C30.9424 21.3076 30.9357 21.1693 30.9276 21.0324C30.8887 20.5544 30.8121 20.0805 30.6564 19.6267C30.549 19.3165 30.4067 19.0225 30.2268 18.7499C30.1301 18.6036 30.0186 18.468 29.8978 18.3431C29.1835 17.5979 28.139 17.3052 27.1374 17.2274C26.9346 17.2126 26.7319 17.2072 26.5291 17.2045ZM140.053 39.3258L157.905 52.9979C157.138 53.9981 156.371 54.9997 155.605 56L137.444 42.093V46.1289C137.443 46.184 137.443 46.239 137.438 46.2927C137.423 46.4579 137.387 46.6203 137.33 46.7747C137.141 47.2957 136.722 47.7159 136.201 47.9052C136.045 47.9616 135.883 47.9979 135.719 48.0127C135.664 48.0167 135.609 48.0167 135.554 48.0194C128.098 48.0194 120.643 48.0194 113.188 48.0194C113.133 48.0167 113.078 48.0167 113.023 48.0127C112.858 47.9979 112.695 47.9616 112.541 47.9052C112.019 47.7146 111.6 47.2957 111.411 46.7734C111.354 46.6177 111.318 46.4552 111.303 46.2901C111.299 46.2364 111.299 46.1813 111.296 46.1263L111.302 42.336L93.6206 55.996L91.3086 53.0032L111.31 37.5508L111.338 17.9175L91.3328 3.03436L93.5898 0L111.345 13.2089L111.351 8.20753C111.354 8.15248 111.354 8.09744 111.36 8.04239C111.374 7.87859 111.411 7.71613 111.467 7.56038C111.656 7.04078 112.077 6.62188 112.596 6.43257C112.752 6.37618 112.914 6.33993 113.078 6.32516C113.133 6.32113 113.188 6.32113 113.243 6.31844H135.554C135.609 6.32113 135.664 6.32113 135.719 6.32516C135.883 6.33993 136.045 6.37618 136.201 6.43257C136.722 6.62188 137.141 7.04213 137.33 7.56307C137.387 7.71747 137.423 7.87993 137.438 8.04507C137.443 8.10012 137.443 8.15517 137.444 8.21022V13.7956L155.611 0.0107411L157.898 3.02362L141.017 15.8337C142.105 15.9519 143.207 16.2137 144.082 16.8998C144.223 17.0112 144.356 17.1307 144.48 17.2596C144.648 17.4355 144.799 17.6261 144.929 17.8302C145.109 18.1095 145.25 18.4116 145.356 18.7257C145.526 19.2319 145.591 19.7582 145.61 20.2886C145.669 25.0697 145.613 29.8522 145.613 34.6333C145.606 35.1583 145.554 35.6765 145.411 36.184C145.322 36.5036 145.19 36.8137 145.023 37.1024C144.888 37.3387 144.725 37.5602 144.54 37.7616C144.399 37.916 144.246 38.0584 144.081 38.1872C143.018 39.0197 141.627 39.2291 140.316 39.311C140.229 39.3164 140.14 39.3218 140.053 39.3258Z" fill="#221E20"/>
</svg>
