<svg width="126" height="128" viewBox="0 0 126 128" fill="none" xmlns="http://www.w3.org/2000/svg">
<path d="M98.5 64C98.5 83.0538 83.0538 98.5 64 98.5C44.9462 98.5 29.5 83.0538 29.5 64C29.5 44.9462 44.9462 29.5 64 29.5C83.0538 29.5 98.5 44.9462 98.5 64Z" fill="#423C3F" stroke="#221E20" stroke-width="3"/>
<path d="M92.5 64C92.5 79.7401 79.7401 92.5 64 92.5C48.2599 92.5 35.5 79.7401 35.5 64C35.5 48.2599 48.2599 35.5 64 35.5C79.7401 35.5 92.5 48.2599 92.5 64Z" stroke="#221E20"/>
<path d="M88.5 64C88.5 77.531 77.531 88.5 64 88.5C50.469 88.5 39.5 77.531 39.5 64C39.5 50.469 50.469 39.5 64 39.5C77.531 39.5 88.5 50.469 88.5 64Z" stroke="#221E20"/>
<path d="M84.5 64C84.5 75.3218 75.3218 84.5 64 84.5C52.6782 84.5 43.5 75.3218 43.5 64C43.5 52.6782 52.6782 43.5 64 43.5C75.3218 43.5 84.5 52.6782 84.5 64Z" stroke="#221E20"/>
<path d="M80.5 64C80.5 73.1127 73.1127 80.5 64 80.5C54.8873 80.5 47.5 73.1127 47.5 64C47.5 54.8873 54.8873 47.5 64 47.5C73.1127 47.5 80.5 54.8873 80.5 64Z" stroke="#221E20"/>
<path d="M76.5 64C76.5 70.9036 70.9036 76.5 64 76.5C57.0964 76.5 51.5 70.9036 51.5 64C51.5 57.0964 57.0964 51.5 64 51.5C70.9036 51.5 76.5 57.0964 76.5 64Z" stroke="#221E20"/>
<path d="M70.5 64C70.5 67.5899 67.5899 70.5 64 70.5C60.4101 70.5 57.5 67.5899 57.5 64C57.5 60.4101 60.4101 57.5 64 57.5C67.5899 57.5 70.5 60.4101 70.5 64Z" fill="white" stroke="#221E20" stroke-width="3"/>
<path d="M99.7595 98.868L98.4247 100.379L97.8873 93.1574L90.3134 93.1272L91.5953 91.6763L98.9115 91.7565L94.7628 88.0911L95.7586 86.964L103.912 94.1676L102.916 95.2948L99.1753 91.9896L99.7595 98.868Z" fill="#221E20"/>
<path d="M85.5636 96.315C86.4194 95.7527 87.3385 95.4423 88.3211 95.3838C89.3007 95.34 90.2298 95.54 91.1085 95.9837C91.9782 96.4333 92.6972 97.0904 93.2653 97.9551C93.8335 98.8198 94.1513 99.7405 94.2188 100.717C94.2773 101.7 94.0892 102.628 93.6544 103.5C93.2165 104.388 92.5697 105.113 91.7139 105.675C90.8581 106.238 89.9404 106.541 88.9609 106.584C87.9783 106.643 87.0521 106.447 86.1824 105.998C85.3037 105.554 84.5803 104.9 84.0121 104.035C83.4439 103.17 83.1306 102.247 83.0721 101.264C83.0046 100.287 83.1898 99.3553 83.6277 98.4677C84.0625 97.5949 84.7078 96.8774 85.5636 96.315ZM86.3367 97.4917C85.7216 97.8959 85.2596 98.4165 84.9506 99.0534C84.6386 99.7052 84.5112 100.395 84.5685 101.123C84.6258 101.851 84.8682 102.541 85.2958 103.192C85.7234 103.842 86.26 104.339 86.9056 104.68C87.5513 105.022 88.2322 105.174 88.9484 105.138C89.6615 105.116 90.3256 104.903 90.9407 104.499C91.5558 104.094 92.0194 103.566 92.3314 102.915C92.6404 102.278 92.7662 101.595 92.709 100.867C92.6517 100.139 92.4093 99.4494 91.9817 98.7986C91.5541 98.1478 91.0175 97.6517 90.3718 97.3101C89.7262 96.9685 89.0468 96.8087 88.3337 96.8305C87.6175 96.8672 86.9518 97.0876 86.3367 97.4917Z" fill="#221E20"/>
<path d="M76.8967 112.304L76.4572 111.001L81.1725 109.411L80.0787 106.166L75.5757 107.684L75.1362 106.381L79.6392 104.863L78.1366 100.405L79.5618 99.9246L83.0372 110.235L76.8967 112.304Z" fill="#221E20"/>
<path d="M66.5763 113.921L66.4176 112.554L71.3604 111.98L70.9653 108.579L66.2451 109.127L66.0863 107.76L70.8066 107.212L70.2639 102.539L71.7578 102.366L73.0131 113.173L66.5763 113.921Z" fill="#221E20"/>
<path d="M61.6524 102.932L63.1545 103.007L62.6089 113.874L61.1068 113.798L61.6524 102.932Z" fill="#221E20"/>
<path d="M50.2065 112.063L50.4952 110.718L55.4543 111.782L56.1492 108.544L51.4091 107.527L51.6978 106.181L56.4379 107.199L57.1596 103.835L52.2005 102.771L52.4892 101.426L58.9188 102.805L56.6361 113.443L50.2065 112.063Z" fill="#221E20"/>
<path d="M37.0193 105.973L42.3541 98.1071L38.2095 95.296L38.9819 94.1572L44.3712 97.8125L38.264 106.817L37.0193 105.973Z" fill="#221E20"/>
<path d="M26.1136 96.6125L27.0936 95.6466L30.6539 99.259L33.0128 96.9342L29.6097 93.4813L30.5898 92.5154L33.9928 95.9683L36.4429 93.5536L32.8826 89.9412L33.8626 88.9753L38.4786 93.6589L30.7296 101.296L26.1136 96.6125Z" fill="#221E20"/>
<path d="M30.891 84.311C31.3054 84.9953 31.5142 85.7106 31.5174 86.457C31.5114 87.2088 31.3195 87.9112 30.9418 88.564C30.5493 89.2133 30.011 89.7451 29.3267 90.1596L23.62 93.6163L22.8408 92.3299L28.397 88.9644C29.2637 88.4394 29.8026 87.8261 30.0137 87.1246C30.2248 86.4231 30.1203 85.7256 29.7003 85.0322C29.2803 84.3388 28.7106 83.9232 27.9911 83.7854C27.2716 83.6476 26.4785 83.8411 25.6117 84.3661L20.0555 87.7317L19.2763 86.4453L24.9831 82.9885C25.6673 82.5741 26.3908 82.3479 27.1534 82.3099C27.9015 82.2683 28.6101 82.419 29.2792 82.762C29.9392 83.1104 30.4765 83.6268 30.891 84.311Z" fill="#221E20"/>
<path d="M17.804 83.315L15.2949 75.4831L16.6053 75.0633L17.6304 78.2631L26.6813 75.3634L27.1401 76.7957L18.0893 79.6954L19.1144 82.8952L17.804 83.315Z" fill="#221E20"/>
<path d="M14.0494 65.7811L15.4184 65.6434L15.926 70.6899L19.2214 70.3584L18.7362 65.5348L20.1053 65.3971L20.5905 70.2207L24.0132 69.8764L23.5056 64.8299L24.8747 64.6922L25.5329 71.2352L14.7075 72.324L14.0494 65.7811Z" fill="#221E20"/>
<path d="M57.0459 14.6008C57.6685 14.509 58.2541 14.5683 58.8026 14.7785C59.3602 14.9767 59.8172 15.2975 60.1736 15.7409C60.5407 16.1828 60.7669 16.6939 60.8525 17.2743C60.9365 17.8441 60.8673 18.3988 60.645 18.9383C60.421 19.4673 60.0768 19.9116 59.6123 20.2712C59.1478 20.6308 58.6042 20.8564 57.9816 20.9482L55.2115 21.3565L55.8625 25.7728L54.3746 25.9921L52.7879 15.2285L57.0459 14.6008ZM57.4643 19.6336C58.1819 19.5278 58.6892 19.2751 58.9861 18.8756C59.292 18.4639 59.4076 18.0048 59.3329 17.4983C59.2583 16.9917 59.0211 16.59 58.6216 16.2931C58.2326 15.9947 57.6845 15.8975 56.9775 16.0018L54.4765 16.3704L55.0108 19.9953L57.4643 19.6336Z" fill="#221E20"/>
<path d="M65.9321 14.1373L65.3092 23.6209L70.3064 23.9491L70.2162 25.3221L63.7182 24.8953L64.4313 14.0387L65.9321 14.1373Z" fill="#221E20"/>
<path d="M79.4455 27.8838L77.8958 27.4258L77.6631 24.4874L73.2747 23.1904L71.482 25.5302L69.9476 25.0768L77.1435 15.8583L78.4171 16.2347L79.4455 27.8838ZM74.0916 22.0637L77.59 23.0977L77.2674 18.4309C77.2461 18.2021 77.2427 18.0065 77.2574 17.844L77.2267 17.8349C77.1507 17.9793 77.0415 18.1416 76.8992 18.322L74.0916 22.0637Z" fill="#221E20"/>
<path d="M92.8145 23.0776L86.3771 26.7081L84.0985 30.5653L82.8036 29.8004L85.0822 25.9431L85.1689 18.5611L86.6292 19.4237L86.4851 24.0402C86.4701 24.5269 86.4308 24.9186 86.3669 25.2154L86.3945 25.2317C86.6236 25.0326 86.9477 24.809 87.3668 24.561L91.3405 22.2069L92.8145 23.0776Z" fill="#221E20"/>
<path d="M96.7057 26.3095L90.2847 33.3164L93.9769 36.6999L93.0472 37.7143L88.2462 33.3147L95.5969 25.2934L96.7057 26.3095Z" fill="#221E20"/>
<path d="M94.5117 39.6988L93.566 38.5292L102.026 31.6884L102.972 32.8579L94.5117 39.6988Z" fill="#221E20"/>
<path d="M97.9113 45.0372C97.5013 44.3132 97.2931 43.6098 97.2866 42.9271C97.28 42.2444 97.4326 41.637 97.7443 41.1051C98.056 40.5731 98.4619 40.1534 98.9619 39.8458L99.7266 41.1963C99.1693 41.5977 98.8379 42.0733 98.7326 42.6233C98.6417 43.1773 98.7671 43.7559 99.1087 44.3593C99.4345 44.9348 99.8173 45.3187 100.257 45.5109C100.706 45.6979 101.14 45.6732 101.557 45.4367C101.864 45.2633 102.064 45.0213 102.158 44.7108C102.261 44.395 102.293 44.0518 102.255 43.6812C102.222 43.3198 102.149 42.834 102.036 42.2236C101.891 41.4477 101.801 40.8123 101.766 40.3174C101.74 39.8171 101.825 39.328 102.02 38.8498C102.215 38.3716 102.587 37.9775 103.134 37.6675C103.654 37.3732 104.19 37.2476 104.741 37.2908C105.293 37.334 105.809 37.5319 106.291 37.8844C106.787 38.241 107.206 38.7209 107.547 39.3243C107.926 39.9926 108.108 40.6496 108.093 41.2952C108.079 41.9407 107.91 42.5202 107.588 43.0336C107.28 43.551 106.875 43.9708 106.37 44.2929L105.606 42.9424C106.132 42.5952 106.463 42.1506 106.597 41.6087C106.737 41.0761 106.655 40.5406 106.35 40.0022C106.035 39.4453 105.648 39.0759 105.189 38.8942C104.736 38.7217 104.301 38.7537 103.883 38.9902C103.586 39.1583 103.388 39.3931 103.289 39.6943C103.204 39.9996 103.181 40.3256 103.218 40.6724C103.255 41.0192 103.331 41.4905 103.448 42.0864C103.602 42.857 103.695 43.497 103.726 44.0065C103.762 44.5253 103.676 45.0337 103.468 45.5317C103.269 46.0244 102.882 46.4336 102.306 46.7594C101.805 47.0432 101.279 47.1635 100.727 47.1203C100.185 47.0718 99.6656 46.8693 99.1695 46.5128C98.6828 46.151 98.2634 45.6591 97.9113 45.0372Z" fill="#221E20"/>
<path d="M110.27 44.8302L112.75 52.6715L111.438 53.0863L110.425 49.8827L101.363 52.7482L100.909 51.3142L109.971 48.4487L108.958 45.245L110.27 44.8302Z" fill="#221E20"/>
</svg>
